<?xml version="1.0" encoding="utf-8"?>
<!-- Generator: Adobe Illustrator 23.0.5, SVG Export Plug-In . SVG Version: 6.00 Build 0)  -->
<svg version="1.1" id="LAUDA" xmlns="http://www.w3.org/2000/svg" xmlns:xlink="http://www.w3.org/1999/xlink" x="0px" y="0px"
	 viewBox="0 0 2000 1000" style="enable-background:new 0 0 2000 1000;" xml:space="preserve">
<style type="text/css">
	.st0{fill:#7C6DAF;}
	.st1{fill:#09AB69;}
	.st2{fill:#53BFA4;}
	.st3{fill:#EE4267;}
	.st4{fill:#FFD23F;}
</style>
<g>
	<polygon class="st0" points="1109.5,616.4 1109.5,419.5 1077.1,419.5 1077.1,616.4 909.8,616.4 909.8,648.9 1109.5,648.9 
		1109.5,647.1 	"/>
	<rect x="909.8" y="351.1" class="st0" width="122.4" height="32.5"/>
</g>
<g>
	<rect x="708.1" y="616.4" class="st1" width="197.9" height="32.5"/>
	<rect x="708.1" y="351.1" class="st1" width="197.9" height="32.5"/>
</g>
<g>
	<rect x="506.4" y="616.4" class="st2" width="197.9" height="32.5"/>
	<rect x="506.4" y="351.1" class="st2" width="197.9" height="32.5"/>
</g>
<g>
	<rect x="206.8" y="616.4" class="st3" width="94.2" height="32.5"/>
	<polygon class="st3" points="129.4,352.9 129.4,383.6 129.4,580.5 161.9,580.5 161.9,383.6 301,383.6 301,351.1 129.4,351.1 	"/>
</g>
<g>
	<rect x="304.7" y="616.4" class="st4" width="197.9" height="32.5"/>
	<rect x="304.7" y="351.1" class="st4" width="197.9" height="32.5"/>
</g>
<g>
	<polygon points="239.1,436.7 206.7,436.7 206.7,580.5 295.4,580.5 295.4,551.5 239.1,551.5 	"/>
	<path d="M395.5,436.7l-48.9,143.8h33.3l8.4-25.5h55.1l8.6,25.5h34.5L437,436.7H395.5z M397.1,526.1l17.9-53.6h1.8l17.7,53.6H397.1z
		"/>
	<path d="M620.1,525.4c0,16.9-8.8,27.1-25.9,27.1s-25.9-10.3-25.9-26.9v-89h-32.7v89.2c0,34.1,23.2,57.3,58.6,57.3
		c35.1,0,58.6-23.2,58.6-57.5v-89h-32.7V525.4z"/>
	<path d="M771.9,436.7h-51.2v143.8h51.2c46,0,74-27.9,74-72.5C845.9,466.1,818,436.7,771.9,436.7z M770.5,552.4h-17.3v-87.5h17.3
		c21.2,0,41.5,12.1,41.5,43.2C812,540.6,791.5,552.4,770.5,552.4z"/>
	<path d="M941.1,436.7l-48.9,143.8h33.3l8.4-25.5h55.1l8.6,25.5h34.5l-49.5-143.8H941.1z M942.7,526.1l17.9-53.6h1.8l17.7,53.6
		H942.7z"/>
	<polygon points="1181,423 1162.1,423 1162.1,383.8 1155.1,383.8 1155.1,429.3 1181,429.3 	"/>
	<rect x="1202.7" y="383.8" width="7" height="45.4"/>
	<path d="M1254.1,430.1c13,0,23.3-8.8,23-25H1253v5.9h16.4c-0.5,7.4-6.9,12.6-15.2,12.6c-9.8,0-16.4-7.2-16.4-17
		c0-9.7,6.6-16.9,16.4-16.9c6.9,0,11.9,3.6,14,8.8h7.7c-2.7-8.8-10.8-15.4-21.7-15.4c-13.8,0-23.6,10.2-23.6,23.6
		C1230.5,420.1,1240.4,430.1,1254.1,430.1z"/>
	<path d="M1335.1,429.3l-16.9-45.4h-8.5l-16.8,45.4h7.2l3.6-9.9h20.4l3.6,9.9H1335.1z M1305.9,413.1l7.8-21.4h0.5l7.8,21.4H1305.9z"
		/>
	<path d="M1391.7,419.4h20.4l3.6,9.9h7.4l-16.9-45.4h-8.5l-16.8,45.4h7.2L1391.7,419.4z M1401.7,391.7h0.5l7.8,21.4h-16
		L1401.7,391.7z"/>
	<polygon points="1476.4,383.8 1467.8,383.8 1450.4,404.8 1450,404.8 1450,383.8 1443,383.8 1443,429.3 1450,429.3 1450,414.8 
		1455.7,408.1 1468.7,429.3 1477.1,429.3 1460.4,402.6 	"/>
	<polygon points="1506.7,429.3 1513.7,429.3 1513.7,390.1 1527.2,390.1 1527.2,383.8 1493.2,383.8 1493.2,390.1 1506.7,390.1 	"/>
	<rect x="1547.8" y="383.8" width="7" height="45.4"/>
	<polygon points="1595.5,420.7 1595.1,420.7 1582.3,383.8 1574.7,383.8 1591.5,429.3 1599.2,429.3 1616.3,383.8 1608.5,383.8 	"/>
	<polygon points="1643,395.7 1643.4,395.7 1664.8,429.3 1672.3,429.3 1672.3,383.8 1665.5,383.8 1665.5,417.5 1665.1,417.5 
		1643.6,383.8 1636.1,383.8 1636.1,429.3 1643,429.3 	"/>
	<path d="M1717.8,430.1c13.7,0,23.8-10.2,23.8-23.6c0-13.2-10-23.6-23.7-23.6c-13.6,0-23.8,10.2-23.8,23.6
		C1694.1,420.1,1704.2,430.1,1717.8,430.1z M1717.9,389.6c9.5,0,16.5,7.3,16.5,16.9c0,9.7-6.9,16.9-16.5,16.9
		c-9.5,0-16.5-7.2-16.5-16.9C1701.4,397,1708.3,389.6,1717.9,389.6z"/>
	<path d="M1807.2,405.1h-24.1v5.9h16.4c-0.5,7.4-6.9,12.6-15.2,12.6c-9.8,0-16.4-7.2-16.4-17c0-9.7,6.6-16.9,16.4-16.9
		c6.9,0,11.9,3.6,14,8.8h7.7c-2.7-8.8-10.8-15.4-21.7-15.4c-13.8,0-23.6,10.2-23.6,23.6c0,13.5,9.9,23.6,23.6,23.6
		C1797.2,430.1,1807.5,421.4,1807.2,405.1z"/>
	<path d="M1172,523.7c10.8,0,17.5-7.1,17.5-17.5v-28.7h-6.9v28.7c0,6.8-3.6,11.1-10.5,11.1c-6.9,0-10.5-4.3-10.5-11v-28.7h-7v28.8
		C1154.5,516.7,1161,523.7,1172,523.7z"/>
	<polygon points="1237.3,471.8 1243.7,462.9 1238.2,462.9 1234.2,466.7 1233.8,466.7 1230,462.9 1224.4,462.9 1230.8,471.8 	"/>
	<path d="M1256.1,507.6h-7.7c-2.1,6-7.7,9.5-14.3,9.5c-9.3,0-16.3-7.1-16.3-16.9c0-9.7,7-16.9,16.3-16.9c6.6,0,12.3,3.5,14.3,9.5
		h7.5c-2.7-9.5-10.7-16.2-21.8-16.2c-13.6,0-23.6,10.2-23.6,23.6c0,13.5,9.9,23.6,23.6,23.6C1245.2,523.7,1253.6,517.2,1256.1,507.6
		z"/>
	<polygon points="1284.9,502.9 1302,502.9 1302,496.8 1284.9,496.8 1284.9,483.6 1304.8,483.6 1304.8,477.4 1277.9,477.4 
		1277.9,522.9 1305.5,522.9 1305.5,516.8 1284.9,516.8 	"/>
	<polygon points="1363.5,522.9 1363.5,477.4 1356.7,477.4 1356.7,511.1 1356.3,511.1 1334.8,477.4 1327.3,477.4 1327.3,522.9 
		1334.2,522.9 1334.2,489.3 1334.6,489.3 1356,522.9 	"/>
	<path d="M1399.8,517.3c-4.9,0-8.2-2.9-8.3-7.4h-6.8c0.1,8.9,6.8,13.8,15,13.8c10.3,0,15.4-6.9,15.4-15.3v-31h-23.5v6.2h16.5v24.7
		C1408.1,512.8,1405.7,517.3,1399.8,517.3z"/>
	<path d="M1449.9,477.4l-16.8,45.4h7.2l3.6-9.9h20.4l3.6,9.9h7.4l-16.9-45.4H1449.9z M1446.1,506.7l7.8-21.4h0.5l7.8,21.4H1446.1z"
		/>
	<polygon points="1543.2,496.2 1559.2,477.4 1550.6,477.4 1533.2,498.4 1532.8,498.4 1532.8,477.4 1525.8,477.4 1525.8,522.9 
		1532.8,522.9 1532.8,508.4 1538.5,501.7 1551.5,522.9 1559.9,522.9 	"/>
	<path d="M1611.4,491.4c0-8.2-6-14-15.2-14h-16.2v45.4h7v-17.3h8.6l9.3,17.3h7.9l-10.3-18.3C1607.4,502.8,1611.4,497.9,1611.4,491.4
		z M1595.8,499.5h-8.9v-16h8.6c5.6,0,8.6,3.5,8.6,7.9C1604.2,496.8,1600.6,499.5,1595.8,499.5z"/>
	<path d="M1654.7,476.6c-13.6,0-23.8,10.2-23.8,23.6c0,13.5,10.1,23.6,23.7,23.6c13.7,0,23.8-10.2,23.8-23.6
		C1678.4,486.9,1668.4,476.6,1654.7,476.6z M1654.7,517.1c-9.5,0-16.5-7.2-16.5-16.9c0-9.6,6.9-16.9,16.5-16.9
		c9.5,0,16.5,7.3,16.5,16.9C1671.1,509.9,1664.2,517.1,1654.7,517.1z"/>
	<polygon points="1705.9,516.3 1731.4,483.9 1731.4,477.4 1698.3,477.4 1698.3,483.5 1722.9,483.5 1722.9,484 1697.5,516.4 
		1697.5,522.9 1731.6,522.9 1731.6,516.8 1705.9,516.8 	"/>
	<path d="M1169.5,571h-14.4v45.4h14.4c14.5,0,23-8.7,23-22.8C1192.5,580.5,1184,571,1169.5,571z M1169.4,610.4h-7.3v-33.2h7.3
		c9.5,0,16,5.9,16,16.5C1185.3,604.7,1178.7,610.4,1169.4,610.4z"/>
	<rect x="1213.3" y="571" width="7" height="45.4"/>
	<path d="M1263.6,598.2h16.4c-0.5,7.4-6.9,12.6-15.2,12.6c-9.8,0-16.4-7.2-16.4-17c0-9.7,6.6-16.9,16.4-16.9c6.9,0,11.9,3.6,14,8.8
		h7.7c-2.7-8.8-10.8-15.4-21.7-15.4c-13.8,0-23.6,10.2-23.6,23.6c0,13.5,9.9,23.6,23.6,23.6c13,0,23.3-8.8,23-25h-24.1V598.2z"/>
	<rect x="1308.5" y="571" width="7" height="45.4"/>
	<polygon points="1336.2,577.3 1349.7,577.3 1349.7,616.5 1356.6,616.5 1356.6,577.3 1370.1,577.3 1370.1,571 1336.2,571 	"/>
	<path d="M1399.6,571l-16.8,45.4h7.2l3.6-9.9h20.4l3.6,9.9h7.4l-16.9-45.4H1399.6z M1395.8,600.3l7.8-21.4h0.5l7.8,21.4H1395.8z"/>
	<polygon points="1451.8,571 1444.8,571 1444.8,616.5 1470.8,616.5 1470.8,610.2 1451.8,610.2 	"/>
	<polygon points="1521.8,604.7 1521.4,604.7 1499.9,571 1492.4,571 1492.4,616.5 1499.3,616.5 1499.3,582.9 1499.7,582.9 
		1521.1,616.5 1528.7,616.5 1528.7,571 1521.8,571 	"/>
	<polygon points="1560.3,596.5 1577.3,596.5 1577.3,590.4 1560.3,590.4 1560.3,577.2 1580.2,577.2 1580.2,571 1553.2,571 
		1553.2,616.5 1580.8,616.5 1580.8,610.4 1560.3,610.4 	"/>
	<path d="M1645.5,571l-16.8,45.4h7.2l3.6-9.9h20.4l3.6,9.9h7.4L1654,571H1645.5z M1641.6,600.3l7.8-21.4h0.5l7.8,21.4H1641.6z"/>
	<polygon points="1697.7,571 1690.7,571 1690.7,616.5 1716.6,616.5 1716.6,610.2 1697.7,610.2 	"/>
	<path d="M1750.5,571l-16.8,45.4h7.2l3.6-9.9h20.4l3.6,9.9h7.4L1759,571H1750.5z M1746.7,600.3l7.8-21.4h0.5l7.8,21.4H1746.7z"/>
	<polygon points="1788.5,577.3 1802,577.3 1802,616.5 1808.9,616.5 1808.9,577.3 1822.4,577.3 1822.4,571 1788.5,571 	"/>
	<polygon points="1850,610.4 1850,596.5 1867.1,596.5 1867.1,590.4 1850,590.4 1850,577.2 1870,577.2 1870,571 1843,571 1843,616.5 
		1870.6,616.5 1870.6,610.4 	"/>
</g>
</svg>
